HIERARCHY
ROOT Hips
{
	OFFSET 0.000000 0.000000 0.000000
	CHANNELS 6 Xposition Yposition Zposition Zrotation Yrotation Xrotation 
	JOINT LHipJoint
	{
		OFFSET 0.000000 0.000000 0.000000
		CHANNELS 3 Zrotation Yrotation Xrotation
		JOINT LeftUpLeg
		{
			OFFSET 1.363060 -1.794630 0.839290
			CHANNELS 3 Zrotation Yrotation Xrotation
			JOINT LeftLeg
			{
				OFFSET 2.448110 -6.726130 0.000000
				CHANNELS 3 Zrotation Yrotation Xrotation
				JOINT LeftFoot
				{
					OFFSET 2.562200 -7.039590 0.000000
					CHANNELS 3 Zrotation Yrotation Xrotation
					JOINT LeftToeBase
					{
						OFFSET 0.157640 -0.433110 2.322550
						CHANNELS 3 Zrotation Yrotation Xrotation
						End Site
						{
							OFFSET 0.000000 0.000000 0.000000
						}
					}
				}
			}
		}
	}
	JOINT RHipJoint
	{
		OFFSET 0.000000 0.000000 0.000000
		CHANNELS 3 Zrotation Yrotation Xrotation
		JOINT RightUpLeg
		{
			OFFSET -1.305520 -1.794630 0.839290
			CHANNELS 3 Zrotation Yrotation Xrotation
			JOINT RightLeg
			{
				OFFSET -2.542530 -6.985550 0.000000
				CHANNELS 3 Zrotation Yrotation Xrotation
				JOINT RightFoot
				{
					OFFSET -2.568260 -7.056230 0.000000
					CHANNELS 3 Zrotation Yrotation Xrotation
					JOINT RightToeBase
					{
						OFFSET -0.164730 -0.452590 2.363150
						CHANNELS 3 Zrotation Yrotation Xrotation
						End Site
						{
							OFFSET 0.000000 0.000000 0.000000
						}
					}
				}
			}
		}
	}
	JOINT LowerBack
	{
		OFFSET 0.000000 0.000000 0.000000
		CHANNELS 3 Zrotation Yrotation Xrotation
		JOINT Spine
		{
			OFFSET 0.028270 2.035590 -0.193380
			CHANNELS 3 Zrotation Yrotation Xrotation
			JOINT Spine1
			{
				OFFSET 0.056720 2.048850 -0.042750
				CHANNELS 3 Zrotation Yrotation Xrotation
				JOINT Neck
				{
					OFFSET 0.000000 0.000000 0.000000
					CHANNELS 3 Zrotation Yrotation Xrotation
					JOINT Neck1
					{
						OFFSET -0.054170 1.746240 0.172020
						CHANNELS 3 Zrotation Yrotation Xrotation
						JOINT Head
						{
							OFFSET 0.104070 1.761360 -0.123970
							CHANNELS 3 Zrotation Yrotation Xrotation
							End Site
							{
								OFFSET 0.000000 0.000000 0.000000
							}
						}
					}
				}
				JOINT LeftShoulder
				{
					OFFSET 0.000000 0.000000 0.000000
					CHANNELS 3 Zrotation Yrotation Xrotation
					JOINT LeftArm
					{
						OFFSET 3.362410 1.200890 -0.311210
						CHANNELS 3 Zrotation Yrotation Xrotation
						JOINT LeftForeArm
						{
							OFFSET 4.983000 -0.000000 -0.000000
							CHANNELS 3 Zrotation Yrotation Xrotation
							JOINT LeftHand
							{
								OFFSET 3.483560 -0.000000 -0.000000
								CHANNELS 3 Zrotation Yrotation Xrotation
								JOINT LeftFingerBase
								{
									OFFSET 0.000000 0.000000 0.000000
									CHANNELS 3 Zrotation Yrotation Xrotation
									JOINT LeftHandIndex1
									{
										OFFSET 0.715260 -0.000000 -0.000000
										CHANNELS 3 Zrotation Yrotation Xrotation
										End Site
										{
											OFFSET 0.000000 0.000000 0.000000
										}
									}
								}
								JOINT LThumb
								{
									OFFSET 0.000000 0.000000 0.000000
									CHANNELS 3 Zrotation Yrotation Xrotation
									End Site
									{
										OFFSET 0.000000 0.000000 0.000000
									}
								}
							}
						}
					}
				}
				JOINT RightShoulder
				{
					OFFSET 0.000000 0.000000 0.000000
					CHANNELS 3 Zrotation Yrotation Xrotation
					JOINT RightArm
					{
						OFFSET -3.136600 1.374050 -0.404650
						CHANNELS 3 Zrotation Yrotation Xrotation
						JOINT RightForeArm
						{
							OFFSET -5.241900 -0.000000 -0.000000
							CHANNELS 3 Zrotation Yrotation Xrotation
							JOINT RightHand
							{
								OFFSET -3.444170 -0.000000 -0.000000
								CHANNELS 3 Zrotation Yrotation Xrotation
								JOINT RightFingerBase
								{
									OFFSET 0.000000 0.000000 0.000000
									CHANNELS 3 Zrotation Yrotation Xrotation
									JOINT RightHandIndex1
									{
										OFFSET -0.622530 -0.000000 -0.000000
										CHANNELS 3 Zrotation Yrotation Xrotation
										End Site
										{
											OFFSET 0.000000 0.000000 0.000000
										}
									}
								}
								JOINT RThumb
								{
									OFFSET 0.000000 0.000000 0.000000
									CHANNELS 3 Zrotation Yrotation Xrotation
									End Site
									{
										OFFSET 0.000000 0.000000 0.000000
									}
								}
							}
						}
					}
				}
			}
		}
	}
}
MOTION
Frames: 7
Frame Time: 0.033333
-0.086767 17.406396 -0.086767 -3.755067 -9.877027 5.418495 -2.089464 20.257295 4.348803 -15.394246 -5.644025 -16.158433 -7.217767 -8.326379 -25.885150 1.208201 16.010126 32.403734 0.000000 0.000000 0.000000 -1.018830 -22.241753 -13.311281 42.070042 9.207107 -0.002921 -14.320887 1.921607 31.733572 -2.429561 17.492132 -28.401250 0.000000 0.000000 0.000000 -0.812886 0.828351 15.118674 0.728967 1.598805 -2.596251 6.348543 1.262108 -2.774877 -5.004989 0.404993 -1.880829 3.287996 -0.158358 3.980110 0.000000 0.000000 0.000000 7.399818 10.711757 10.268731 -70.537264 -9.161173 -0.718193 -168.239521 -87.880878 179.018350 11.064012 -14.673113 -0.517195 11.341190 -14.541326 0.000000 0.000000 0.000000 0.000000 0.000000 0.000000 0.000000 4.405242 -13.272200 4.485813 51.407400 10.445288 13.821669 29.623900 52.342745 0.175057 0.587331 6.844638 0.087150 0.584077 6.847109 0.000000 0.000000 0.000000 0.000000 0.000000 0.000000 0.000000 
-0.072943 17.439740 0.075983 -3.548823 -10.280310 5.653583 -1.745227 20.593531 4.284552 -16.156725 -5.740610 -16.053645 -7.135946 -7.894124 -24.700986 0.852046 15.041411 30.122581 0.000000 0.000000 0.000000 -1.070812 -21.902359 -12.685038 41.115438 9.649209 -0.616284 -13.457048 1.671920 32.127648 -2.463804 17.787318 -28.939935 0.000000 0.000000 0.000000 -0.991136 0.705295 14.649811 0.494890 1.525694 -2.541583 6.987931 1.035612 -2.335710 -5.219969 0.386836 -2.082737 3.113647 -0.158611 3.838290 0.000000 0.000000 0.000000 7.880768 10.159703 10.099057 -70.184711 -9.914308 -4.403749 -164.848867 -87.280386 178.805928 11.989700 -13.836029 -0.625270 12.277065 -13.688921 0.000000 0.000000 0.000000 0.000000 0.000000 0.000000 0.000000 4.757276 -12.758672 4.233808 50.416141 10.696853 13.199376 29.862708 51.106487 0.162809 0.601761 6.564324 0.081067 0.598658 6.566655 0.000000 0.000000 0.000000 0.000000 0.000000 0.000000 0.000000 
-0.056882 17.474902 0.238153 -3.337927 -10.660588 5.893056 -1.443726 20.926134 4.203095 -16.884929 -5.850908 -15.992661 -7.071169 -7.426517 -23.421605 0.536511 14.053614 27.831370 0.000000 0.000000 0.000000 -1.095726 -21.528736 -12.043687 40.087696 10.094715 -1.280026 -12.584720 1.407257 32.489086 -2.483470 18.058253 -29.423195 0.000000 0.000000 0.000000 -1.163146 0.564267 14.179502 0.258819 1.434278 -2.489743 7.617897 0.798468 -1.954455 -5.426179 0.367370 -2.234661 2.935373 -0.159095 3.695034 0.000000 0.000000 0.000000 8.351610 9.602178 9.798071 -69.682051 -10.555678 -8.032801 -161.414704 -86.967472 178.601104 12.781970 -12.891136 -0.729227 13.073576 -12.732304 0.000000 0.000000 0.000000 0.000000 0.000000 0.000000 0.000000 5.098554 -12.210263 4.006129 49.423958 10.897830 12.578403 30.082804 49.868605 0.150868 0.616257 6.290885 0.075133 0.613296 6.293080 0.000000 0.000000 0.000000 0.000000 0.000000 0.000000 0.000000 
-0.038635 17.511436 0.399344 -3.123844 -11.020746 6.135385 -1.187898 21.257813 4.107901 -17.572819 -5.975048 -15.979563 -7.022599 -6.924907 -22.055130 0.262324 13.057361 25.548635 0.000000 0.000000 0.000000 -1.093814 -21.124488 -11.390870 38.992122 10.536009 -1.986269 -11.706716 1.130922 32.811924 -2.489695 18.307918 -29.854279 0.000000 0.000000 0.000000 -1.327623 0.403226 13.710270 0.022751 1.322833 -2.441050 8.233877 0.551675 -1.634376 -5.624883 0.346859 -2.333673 2.755102 -0.159772 3.550157 0.000000 0.000000 0.000000 8.807314 9.038840 9.357232 -69.018636 -11.056941 -11.535542 -157.887950 -86.960226 178.407879 13.430720 -11.864595 -0.827051 13.721235 -11.697930 -0.000000 0.000000 0.000000 0.000000 0.000000 0.000000 0.000000 5.430714 -11.623509 3.807876 48.433521 11.048782 11.961383 30.283469 48.630025 0.139267 0.630682 6.024481 0.069366 0.627855 6.026541 0.000000 0.000000 0.000000 0.000000 0.000000 0.000000 0.000000 
-0.018769 17.548934 0.559192 -2.907826 -11.363661 6.379257 -0.980142 21.590077 4.002688 -18.215126 -6.113498 -16.017495 -6.983745 -6.391504 -20.611477 0.028931 12.062295 23.292738 0.000000 0.000000 0.000000 -1.065489 -20.692612 -10.730120 37.832970 10.966590 -2.727654 -10.819349 0.843628 33.092993 -2.482921 18.537626 -30.236803 0.000000 0.000000 0.000000 -1.483268 0.220877 13.244235 -0.211639 1.190214 -2.396215 8.831579 0.296597 -1.376870 -5.817154 0.325544 -2.377734 2.574410 -0.160576 3.403216 0.000000 0.000000 0.000000 9.242377 8.469372 8.773004 -68.186575 -11.396751 -14.832148 -154.218959 -87.283255 178.230606 13.928407 -10.781204 -0.916538 14.213178 -10.610605 -0.000000 0.000000 0.000000 0.000000 0.000000 0.000000 0.000000 5.756029 -10.996389 3.642942 47.447276 11.150454 11.350832 30.463765 47.391982 0.128037 0.644858 5.765257 0.063780 0.642161 5.767188 0.000000 0.000000 0.000000 0.000000 0.000000 0.000000 0.000000 
0.004126 17.587593 0.718872 -2.682448 -10.841097 6.666849 -0.900048 21.498360 3.531083 -18.782040 -6.233455 -15.870345 -7.053481 -5.926847 -18.938267 -0.141289 10.812780 21.114516 0.000000 0.000000 0.000000 -1.058764 -20.735299 -9.808617 36.719328 11.609610 -3.880844 -10.075379 0.423195 33.628428 -2.437724 18.476811 -30.584046 0.000000 0.000000 0.000000 -1.330056 0.291216 12.967404 -0.261821 1.132033 -2.208492 8.197403 0.359646 -1.641808 -5.560949 0.321032 -2.356635 2.657702 -0.166690 3.574127 0.000000 0.000000 0.000000 8.853855 8.947807 9.165535 -68.880837 -11.303620 -12.146962 -157.098047 -86.982182 178.373104 13.545489 -11.643688 -0.844668 13.835068 -11.475751 -0.000000 0.000000 0.000000 0.000000 0.000000 0.000000 0.000000 5.245428 -11.572162 3.896376 48.668978 11.033164 12.367267 30.275853 49.779147 0.149506 0.646805 6.266070 0.074457 0.643851 6.268271 0.000000 0.000000 0.000000 0.000000 0.000000 0.000000 0.000000 
0.028693 17.626418 0.877124 -2.460037 -10.296900 6.956525 -0.863020 21.399452 3.057393 -19.298478 -6.376550 -15.777382 -7.104129 -5.433998 -17.200363 -0.276704 9.598873 18.980189 0.000000 0.000000 0.000000 -1.022438 -20.757335 -8.885667 35.552869 12.220490 -5.051668 -9.329531 -0.005747 34.106968 -2.383511 18.392556 -30.890910 0.000000 0.000000 0.000000 -1.164950 0.348562 12.694689 -0.296693 1.063018 -2.019494 7.524273 0.425446 -1.963242 -5.303114 0.317881 -2.283124 2.752086 -0.172707 3.748504 0.000000 0.000000 0.000000 8.423805 9.424756 9.477550 -69.456879 -11.079166 -9.236037 -159.948536 -86.905889 178.530491 13.056936 -12.497848 -0.765113 13.348595 -12.335100 0.000000 0.000000 0.000000 0.000000 0.000000 0.000000 0.000000 4.735278 -12.117050 4.166397 49.915204 10.847384 13.439293 29.959251 52.243236 0.173475 0.640213 6.798711 0.086369 0.636991 6.801212 0.000000 0.000000 0.000000 0.000000 0.000000 0.000000 0.000000 
